<?xml version="1.0" encoding="UTF-8"?>
<svg version="1.1" xmlns="http://www.w3.org/2000/svg" width="1000" height="1000">
<path d="M0 0 C330 0 660 0 1000 0 C1000 330 1000 660 1000 1000 C670 1000 340 1000 0 1000 C0 670 0 340 0 0 Z " fill="#FEFEFE" transform="translate(0,0)"/>
<path d="M0 0 C179.19 0 358.38 0 543 0 C543 179.52 543 359.04 543 544 C363.81 544 184.62 544 0 544 C0 475.69 0 407.38 0 337 C4.48616125 342.60770156 4.48616125 342.60770156 6.15625 345.390625 C6.53257568 346.0088916 6.90890137 346.6271582 7.29663086 347.26416016 C7.69374268 347.9194873 8.09085449 348.57481445 8.5 349.25 C28.66235994 381.95083937 54.62407727 413.15967754 84 438 C84.95519531 438.84433594 85.91039062 439.68867187 86.89453125 440.55859375 C107.26411634 458.49175691 129.62419074 473.33034465 153 487 C153.72493652 487.42780762 154.44987305 487.85561523 155.19677734 488.29638672 C184.75802195 505.65578519 217.05118717 518.68636052 250.19726562 527.27099609 C252.84063913 527.95854952 255.47562031 528.67112525 258.109375 529.39453125 C262.72537784 530.65552231 267.35564234 531.84811746 272 533 C272.70060547 533.1762793 273.40121094 533.35255859 274.12304688 533.53417969 C285.14921474 536.25247177 296.3044282 537.80527895 307.5625 539.1875 C308.24298401 539.27226593 308.92346802 539.35703186 309.62457275 539.44436646 C328.41822903 541.75822949 347.13909507 542.21028033 366.0625 542.1875 C367.14937103 542.18623108 368.23624207 542.18496216 369.35604858 542.18365479 C410.48069396 542.09213306 452.57780356 537.14744755 491.70068359 523.78515625 C493.42797298 523.19533223 495.15792837 522.61330633 496.88916016 522.03515625 C500.20038016 520.92922193 503.50696918 519.81031819 506.8125 518.6875 C507.83150391 518.34485107 508.85050781 518.00220215 509.90039062 517.64916992 C519.85758255 514.21761732 529.21499738 510.1200011 539 506 C539.33 454.85 539.66 403.7 540 351 C532.41 352.65 524.82 354.3 517 356 C508.77893134 357.64421373 500.75262772 358.87223905 492.44287109 359.74121094 C490.80959263 359.91423464 489.17707773 360.09461887 487.54541016 360.28222656 C452.92916846 364.23033841 417.16654529 362.86295465 383 356 C382.14631836 355.83274414 381.29263672 355.66548828 380.41308594 355.49316406 C308.62497724 341.26740321 240.15119791 304.78270852 192 249 C191.47229004 248.39526855 190.94458008 247.79053711 190.40087891 247.16748047 C179.31331354 234.38593711 168.14959904 220.43606012 161 205 C165.8100903 201.89833527 170.6921913 199.0442612 175.74707031 196.36157227 C196.28554122 185.42867874 216.54771532 172.16342281 233.59375 156.23046875 C235.60375435 154.36729914 237.64701752 152.57364318 239.72265625 150.78515625 C251.05468079 140.89834099 261.95474486 130.02376203 271 118 C271.50418457 117.35047363 272.00836914 116.70094727 272.52783203 116.03173828 C299.39912803 81.40330065 313.8182088 44.27253838 320 1 C286.34 1 252.68 1 218 1 C218 11.89 218 22.78 218 34 C217.71191957 39.73350319 217.40030005 45.3125857 216.8125 51 C216.7150499 51.99790054 216.7150499 51.99790054 216.6156311 53.01596069 C214.62718156 73.25072982 210.38134223 92.71628957 204 112 C203.70222656 112.91491211 203.40445313 113.82982422 203.09765625 114.77246094 C187.5582953 162.24488625 160.84052672 209.54523921 124.55078125 244.44921875 C122.88209941 246.11790059 121.38954812 247.87814932 119.875 249.6875 C115.22585227 255.07675869 109.9077457 259.75230092 104.63574219 264.51708984 C103.11633637 265.89453326 101.60844888 267.28465299 100.1015625 268.67578125 C73.69882308 292.99807559 43.41682848 312.36857615 12.0625 329.625 C11.09578369 330.15883301 10.12906738 330.69266602 9.13305664 331.24267578 C7.78522095 331.97719971 7.78522095 331.97719971 6.41015625 332.7265625 C5.20564819 333.38519287 5.20564819 333.38519287 3.97680664 334.05712891 C2 335 2 335 0 335 C0 224.45 0 113.9 0 0 Z " fill="#0210AD" transform="translate(229,104)"/>
<path d="M0 0 C0.33 0 0.66 0 1 0 C1 110.22 1 220.44 1 334 C24.05569523 321.6487347 46.02281403 309.36136582 67 294 C67.67901367 293.5064502 68.35802734 293.01290039 69.05761719 292.50439453 C78.76389903 285.43293789 88.00940357 277.95931366 97 270 C97.84691406 269.25363281 98.69382812 268.50726563 99.56640625 267.73828125 C102.0636744 265.51254472 104.5352582 263.26172116 107 261 C107.58458984 260.46584473 108.16917969 259.93168945 108.77148438 259.38134766 C118.48492614 250.58992907 118.48492614 250.58992907 127.34765625 240.96484375 C129.40099886 238.52316212 131.57699119 236.21073022 133.75 233.875 C139.53115886 227.52534595 144.80972865 220.83716686 150 214 C150.4552002 213.40171387 150.91040039 212.80342773 151.37939453 212.18701172 C173.36566368 183.14014318 190.45177758 151.17389 202.09960938 116.63818359 C202.85062727 114.43766857 203.63471722 112.25803998 204.453125 110.08203125 C217.14664955 75.17483875 217.89335451 36.51930112 219 0 C252.66 0 286.32 0 321 0 C321 10.13185024 321 10.13185024 320.23046875 13.8671875 C320.06571045 14.68380859 319.90095215 15.50042969 319.73120117 16.34179688 C319.55177979 17.17775391 319.3723584 18.01371094 319.1875 18.875 C319.00227783 19.75994141 318.81705566 20.64488281 318.6262207 21.55664062 C317.30476238 27.7787692 315.92929705 33.93422657 314 40 C313.79068848 40.66837891 313.58137695 41.33675781 313.36572266 42.02539062 C304.45376234 70.09474703 290.2905978 95.01903493 272 118 C271.55285645 118.56428711 271.10571289 119.12857422 270.64501953 119.70996094 C264.08397899 127.89377997 256.8226411 135.37270716 249.4375 142.8125 C248.57519775 143.68414795 247.71289551 144.5557959 246.82446289 145.45385742 C240.85821156 151.39073227 234.58880382 156.7683799 228 162 C226.83106487 162.95324326 225.66293208 163.9074725 224.49609375 164.86328125 C205.41592068 180.14204053 184.37668296 192.27098381 163 204 C169.65617247 217.51670112 178.79151604 229.51298273 188.3125 241.125 C188.87453125 241.81094238 189.4365625 242.49688477 190.015625 243.20361328 C193.29798221 247.14147653 196.7288781 250.83017224 200.41088867 254.39770508 C202.04590174 256.04628255 203.52423727 257.77101535 205 259.5625 C214.16007464 270.13654589 225.05155978 279.21841795 236.18896484 287.62597656 C238.0724345 289.05495569 239.93697826 290.50642357 241.80078125 291.9609375 C315.81034976 349.23782766 412.02139553 368.24221177 503.48925781 356.625 C512.56196695 355.41010702 521.5282294 353.62884753 530.43164062 351.5090332 C533.92226092 350.8172135 537.46896212 350.44137973 541 350 C541 401.15 541 452.3 541 505 C529.74849579 510.62575211 529.74849579 510.62575211 524.609375 512.5 C523.48660156 512.9125 522.36382813 513.325 521.20703125 513.75 C520.06621094 514.1625 518.92539062 514.575 517.75 515 C516.62464844 515.4125 515.49929688 515.825 514.33984375 516.25 C512.05048611 517.0872508 509.75919688 517.91923766 507.46606445 518.74609375 C505.15832653 519.58095618 502.85471021 520.42730211 500.55541992 521.28515625 C492.09294029 524.40426111 483.56913741 526.85798581 474.8125 529 C473.78227219 529.2547963 473.78227219 529.2547963 472.73123169 529.51473999 C454.92994026 533.90380137 436.98602463 537.30646251 418.8125 539.75 C417.52363892 539.92366089 417.52363892 539.92366089 416.20874023 540.10083008 C400.22008246 542.10264718 384.21288972 542.20263399 368.125 542.1875 C367.03840088 542.18722809 365.95180176 542.18695618 364.83227539 542.18667603 C349.76301617 542.16933367 334.81656373 541.97065774 319.82324219 540.31201172 C316.84542783 539.9829174 313.86503421 539.69634803 310.8828125 539.41015625 C289.8831782 537.26917791 269.22272257 532.96047891 249.08886719 526.62988281 C246.83378385 525.94987872 244.56704595 525.34088238 242.2890625 524.7421875 C168.82968393 505.24494532 96.09153745 458.41134367 47 400 C46.15824219 399.04738281 45.31648438 398.09476562 44.44921875 397.11328125 C28.29247408 378.77104345 14.92875206 358.68600329 2 338 C1.67 405.32 1.34 472.64 1 542 C0.67 542 0.34 542 0 542 C0 363.14 0 184.28 0 0 Z " fill="#D1EEFC" transform="translate(228,105)"/>
<path d="M0 0 C71.61 0 143.22 0 217 0 C221.11589602 37.04306416 215.66177946 75.75939225 204 111 C203.70222656 111.91491211 203.40445313 112.82982422 203.09765625 113.77246094 C187.5582953 161.24488625 160.84052672 208.54523921 124.55078125 243.44921875 C122.88209941 245.11790059 121.38954812 246.87814932 119.875 248.6875 C115.22585227 254.07675869 109.9077457 258.75230092 104.63574219 263.51708984 C103.11633637 264.89453326 101.60844888 266.28465299 100.1015625 267.67578125 C73.69882308 291.99807559 43.41682848 311.36857615 12.0625 328.625 C11.09578369 329.15883301 10.12906738 329.69266602 9.13305664 330.24267578 C7.78522095 330.97719971 7.78522095 330.97719971 6.41015625 331.7265625 C5.20564819 332.38519287 5.20564819 332.38519287 3.97680664 333.05712891 C2 334 2 334 0 334 C0 223.78 0 113.56 0 0 Z " fill="#033950" transform="translate(229,105)"/>
<path d="M0 0 C4.48616125 5.60770156 4.48616125 5.60770156 6.15625 8.390625 C6.53257568 9.0088916 6.90890137 9.6271582 7.29663086 10.26416016 C7.89229858 11.24715088 7.89229858 11.24715088 8.5 12.25 C28.66235994 44.95083937 54.62407727 76.15967754 84 101 C84.95519531 101.84433594 85.91039062 102.68867187 86.89453125 103.55859375 C107.26411634 121.49175691 129.62419074 136.33034465 153 150 C153.72493652 150.42780762 154.44987305 150.85561523 155.19677734 151.29638672 C184.75802195 168.65578519 217.05118717 181.68636052 250.19726562 190.27099609 C253.55402829 191.14410527 256.89810748 192.05980971 260.24121094 192.98364258 C277.58363284 197.61825533 294.85648018 200.71734963 312.6875 202.75 C314.57626514 202.97186372 316.46493774 203.19451666 318.35351562 203.41796875 C322.90133474 203.95436369 327.45025001 204.48024857 332 205 C332 205.33 332 205.66 332 206 C222.44 206 112.88 206 0 206 C0 138.02 0 70.04 0 0 Z " fill="#033950" transform="translate(229,441)"/>
<path d="M0 0 C5.94 0.99 5.94 0.99 12 2 C12 11.24 12 20.48 12 30 C54.24 30 96.48 30 140 30 C140 31.98 140 33.96 140 36 C125.15 36 110.3 36 95 36 C95 38.64 95 41.28 95 44 C95.79277344 43.51273438 95.79277344 43.51273438 96.6015625 43.015625 C99.64910791 41.72513346 102.07188589 41.73460087 105.375 41.75 C106.47585938 41.74484375 107.57671875 41.7396875 108.7109375 41.734375 C115.73434581 42.30158612 121.01075795 45.13841446 126 50 C129.72656851 55.64858092 131.12711011 60.89178571 131.09765625 67.63671875 C131.09443359 68.93544922 131.09121094 70.23417969 131.08789062 71.57226562 C131.07953531 72.94401108 131.07107037 74.31575587 131.0625 75.6875 C131.05748335 77.07096195 131.05292073 78.45442563 131.04882812 79.83789062 C131.03702529 83.22530395 131.02056019 86.61263033 131 90 C129.01926635 89.719172 127.04041552 89.42503386 125.0625 89.125 C123.96035156 88.96257812 122.85820313 88.80015625 121.72265625 88.6328125 C120.82417969 88.42398438 119.92570312 88.21515625 119 88 C118.67 87.34 118.34 86.68 118 86 C117.154375 86.495 116.30875 86.99 115.4375 87.5 C109.43464557 90.07089462 102.36519188 89.87203815 96 89 C90.94518759 86.13678458 87.84891704 83.54675112 86 78 C85.46641484 72.91782005 85.43295509 69.09498327 87.8125 64.5 C90.11124135 61.87286702 91.70238816 60.13177125 95.26953125 59.76953125 C99.9710936 59.84897393 104.359249 60.21008494 109 61 C112.00209991 61.08435653 114.99758936 61.06004821 118 61 C117.89386164 58.54775306 117.89386164 58.54775306 117 56 C113.41176571 54.12926575 110.32594958 53.70357523 106.3125 53.6875 C105.35988281 53.67074219 104.40726563 53.65398438 103.42578125 53.63671875 C98.81960097 54.01850693 98.81960097 54.01850693 90 57 C90 50.07 90 43.14 90 36 C64.26 36 38.52 36 12 36 C9.26105201 61.2557673 9.26105201 61.2557673 17 82 C23.53740377 81.8665836 27.10984232 79.1534586 32 75 C33.00533667 76.62170379 34.00411907 78.24747237 35 79.875 C35.556875 80.77992188 36.11375 81.68484375 36.6875 82.6171875 C38 85 38 85 38 87 C31.54729139 90.60151178 25.28456843 90.90733059 18 90 C11.98809616 88.16958273 7.50086734 85.337663 3.9375 80.13671875 C-2.12165899 66.32688556 1 50.45566061 1 36 C-30.02 36 -61.04 36 -93 36 C-93 38.31 -93 40.62 -93 43 C-92.01 42.67 -91.02 42.34 -90 42 C-73.3664341 40.79638491 -73.3664341 40.79638491 -67 46 C-61.52017621 51.13051231 -58.28210221 55.7320665 -57.77294922 63.43505859 C-57.78342285 64.66047363 -57.79389648 65.88588867 -57.8046875 67.1484375 C-57.8075174 67.80582916 -57.81034729 68.46322083 -57.81326294 69.14053345 C-57.82436553 71.21888233 -57.84945014 73.29678366 -57.875 75.375 C-57.88504269 76.79296248 -57.89416627 78.21093179 -57.90234375 79.62890625 C-57.92427195 83.08608037 -57.95873182 86.54299642 -58 90 C-63.94 89.01 -63.94 89.01 -70 88 C-70 87.34 -70 86.68 -70 86 C-70.845625 86.495 -71.69125 86.99 -72.5625 87.5 C-79.06661395 90.27987692 -87.70076705 90.28976989 -94.421875 88.2734375 C-98.21977799 86.27710388 -100.15827308 83.77954395 -102 80 C-102.36328125 76.80859375 -102.36328125 76.80859375 -102.3125 73.4375 C-102.30863281 72.32246094 -102.30476562 71.20742188 -102.30078125 70.05859375 C-101.89913541 65.97432504 -101.05962568 63.89907633 -97.9375 61.25 C-89.67437048 57.73377467 -78.67129213 60.80836231 -70 62 C-70.99082965 57.80330091 -70.99082965 57.80330091 -73.70703125 54.64453125 C-76.76040473 53.78625761 -79.51531189 53.69796927 -82.6875 53.6875 C-84.42580078 53.66236328 -84.42580078 53.66236328 -86.19921875 53.63671875 C-90.97027046 53.94920899 -90.97027046 53.94920899 -99 57 C-99 50.07 -99 43.14 -99 36 C-111.87 36 -124.74 36 -138 36 C-136.02 40.62 -134.04 45.24 -132 50 C-133 54 -133 54 -134.70703125 55.08984375 C-135.40183594 55.36957031 -136.09664063 55.64929688 -136.8125 55.9375 C-140.69372227 57.77010585 -143.01031534 59.02063069 -145 63 C-145.82991311 68.69083274 -146.01744923 73.31484971 -143 78.3125 C-139.7243018 80.15508024 -137.68026596 80.46254139 -133.984375 79.69140625 C-128.84281642 77.89995769 -125.9637746 74.42713263 -123.1875 69.9375 C-119.41764097 62.02321262 -120.0638315 52.59847845 -120 44 C-115.79213858 42.39700517 -112.48184122 41.89956658 -108 42 C-107.90670049 49.615652 -107.83593449 57.23124362 -107.79275131 64.84733963 C-107.77200955 68.38508763 -107.7439434 71.92244034 -107.69824219 75.45996094 C-107.64585764 79.54105088 -107.62694429 83.62173548 -107.609375 87.703125 C-107.58872986 88.95361633 -107.56808472 90.20410767 -107.54681396 91.49249268 C-107.54448914 100.72901633 -109.04417833 108.8546808 -113.6875 116.9375 C-120.44287445 122.9625637 -127.54164867 125.41364276 -136.4765625 125.26953125 C-143.38774289 124.53134016 -147.3890676 119.88102885 -151.8125 115 C-153 113 -153 113 -152.84765625 111.015625 C-151.89926685 108.76046863 -150.77079694 106.80122607 -149.4375 104.75 C-148.98246094 104.04359375 -148.52742188 103.3371875 -148.05859375 102.609375 C-147.53458984 101.81273437 -147.53458984 101.81273437 -147 101 C-143.25718967 102.24760344 -142.73533369 103.55150925 -140.625 106.8125 C-137.05328233 112.15695909 -137.05328233 112.15695909 -132 116 C-128.29059225 116.33465889 -128.29059225 116.33465889 -125 116 C-124.51891725 114.58398286 -124.04021859 113.16715563 -123.5625 111.75 C-123.29566406 110.96109375 -123.02882813 110.1721875 -122.75390625 109.359375 C-121.16934235 104.4004289 -120.87777187 99.95094145 -120.9375 94.75 C-120.94201172 94.00492188 -120.94652344 93.25984375 -120.95117188 92.4921875 C-120.96290754 90.6614236 -120.9808415 88.83070127 -121 87 C-121.72316406 87.48726562 -122.44632812 87.97453125 -123.19140625 88.4765625 C-127.45665092 90.79011664 -131.26004805 90.56391711 -136 90 C-139.3125 88.75 -139.3125 88.75 -142 87 C-142.845625 86.46375 -143.69125 85.9275 -144.5625 85.375 C-149.95991377 80.11598146 -152.23316833 75.22168707 -152.54492188 67.69897461 C-152.6006231 60.5328569 -152.26579211 54.99516729 -148 49 C-147.071875 48.175 -146.14375 47.35 -145.1875 46.5 C-144.465625 45.675 -143.74375 44.85 -143 44 C-143.33 41.36 -143.66 38.72 -144 36 C-149.61 36 -155.22 36 -161 36 C-161 34.02 -161 32.04 -161 30 C-107.87 30 -54.74 30 0 30 C0 20.1 0 10.2 0 0 Z " fill="#0A3E55" transform="translate(634,658)"/>
<path d="M0 0 C3.96 0.33 7.92 0.66 12 1 C12 10.24 12 19.48 12 29 C23.55 29 35.1 29 47 29 C47 19.43 47 9.86 47 0 C52.445 0.495 52.445 0.495 58 1 C58 10.24 58 19.48 58 29 C74.5 29 91 29 108 29 C108 30.98 108 32.96 108 35 C91.5 35 75 35 58 35 C58.103125 40.1975 58.20625 45.395 58.3125 50.75 C58.34984253 53.17037598 58.34984253 53.17037598 58.38793945 55.63964844 C58.10940454 69.21709038 58.10940454 69.21709038 63 81 C66.92894886 81.45685452 68.75313122 81.13767682 72.25 79.1875 C75.14542239 77.11320337 75.14542239 77.11320337 77 74 C77.66 74 78.32 74 79 74 C79.83819158 75.62249941 80.6704116 77.24808497 81.5 78.875 C81.9640625 79.77992188 82.428125 80.68484375 82.90625 81.6171875 C84 84 84 84 84 86 C76.83118042 89.30868596 69.3549297 90.64088455 61.62890625 88.2734375 C55.53679596 85.44043347 51.47024526 81.68314812 48.875 75.421875 C46.08148728 67.50235774 46.56993704 59.59420104 46.75 51.3125 C46.8325 45.929375 46.915 40.54625 47 35 C35.45 35 23.9 35 12 35 C12 37.97 12 40.94 12 44 C13.04027344 43.27296875 13.04027344 43.27296875 14.1015625 42.53125 C19.16943172 39.85388513 24.41857644 40.28425641 30 41 C34.52130047 42.68670277 37.05443737 45.64127133 39.4375 49.75 C41.34998904 54.17367031 41.96566736 58.25419888 41 63 C38.93888711 67.74952102 36.84424586 70.94016042 32 73 C32.5775 73.98742187 33.155 74.97484375 33.75 75.9921875 C34.500226 77.28632735 35.25021368 78.58060537 36 79.875 C36.3815625 80.52597656 36.763125 81.17695312 37.15625 81.84765625 C40 86.7734375 40 86.7734375 40 89 C35.69691475 89.99813833 32.26950572 90.24569108 28 89 C23.56348891 84.93976105 20.83081088 79.227993 18 74 C17.24297929 72.66603583 16.48275694 71.33388149 15.71875 70.00390625 C15.1515625 69.01261719 14.584375 68.02132812 14 67 C14.64066406 66.68546875 15.28132812 66.3709375 15.94140625 66.046875 C25.57126323 61.86980796 25.57126323 61.86980796 33 55 C33.25030977 52.41619823 33.25030977 52.41619823 33 50 C31.45016739 48.45016739 29.96331622 48.71867039 27.8125 48.625 C23.74533064 48.68955824 21.2582357 49.42953469 18.26928711 52.41796875 C12.3873743 59.74914687 12.35536886 66.92869865 12.25 76 C12.20552734 77.87751953 12.20552734 77.87751953 12.16015625 79.79296875 C12.08987212 82.86204241 12.03696808 85.93037452 12 89 C10.56208484 88.85831863 9.1246763 88.71148957 7.6875 88.5625 C6.48673828 88.44068359 6.48673828 88.44068359 5.26171875 88.31640625 C3 88 3 88 0 87 C0 69.84 0 52.68 0 35 C-3.63 35 -7.26 35 -11 35 C-11 52.82 -11 70.64 -11 89 C-14.63 89 -18.26 89 -22 89 C-22 87.68 -22 86.36 -22 85 C-23.134375 85.66 -24.26875 86.32 -25.4375 87 C-30.04356319 89.26647554 -33.93189286 90.00297042 -39 89 C-46.40024011 86.06425575 -50.95886391 80.1750511 -54.375 73.1875 C-56.2600826 63.57357875 -54.88639378 56.17560264 -50.1875 47.75 C-47.72918619 44.65954835 -45.46667165 42.87778048 -42 41 C-40.68 41 -39.36 41 -38 41 C-37.32880451 42.4562545 -36.66318193 43.91507867 -36 45.375 C-35.62875 46.18710937 -35.2575 46.99921875 -34.875 47.8359375 C-34 50 -34 50 -34 52 C-34.90492188 52.45439453 -34.90492188 52.45439453 -35.828125 52.91796875 C-41.29424236 55.78327221 -45.16064592 58.32129184 -48 64 C-48.42484112 69.02893321 -48.35785972 73.4316468 -46 78 C-40.09063959 79.11783437 -40.09063959 79.11783437 -34.3125 78 C-28.17342171 72.69052689 -25.9738831 68.93035492 -23 61 C-22.67 52.42 -22.34 43.84 -22 35 C-44.44 35 -66.88 35 -90 35 C-88.02 39.62 -86.04 44.24 -84 49 C-85 53 -85 53 -86.70703125 54.08984375 C-87.40183594 54.36957031 -88.09664062 54.64929688 -88.8125 54.9375 C-92.69372227 56.77010585 -95.01031534 58.02063069 -97 62 C-97.82991311 67.69083274 -98.01744923 72.31484971 -95 77.3125 C-91.7243018 79.15508024 -89.68026596 79.46254139 -85.984375 78.69140625 C-80.84281642 76.89995769 -77.9637746 73.42713263 -75.1875 68.9375 C-71.41764097 61.02321262 -72.0638315 51.59847845 -72 43 C-67.79213858 41.39700517 -64.48184122 40.89956658 -60 41 C-59.90670049 48.615652 -59.83593449 56.23124362 -59.79275131 63.84733963 C-59.77200955 67.38508763 -59.7439434 70.92244034 -59.69824219 74.45996094 C-59.64585764 78.54105088 -59.62694429 82.62173548 -59.609375 86.703125 C-59.58872986 87.95361633 -59.56808472 89.20410767 -59.54681396 90.49249268 C-59.54448914 99.72901633 -61.04417833 107.8546808 -65.6875 115.9375 C-72.44287445 121.9625637 -79.54164867 124.41364276 -88.4765625 124.26953125 C-95.38774289 123.53134016 -99.3890676 118.88102885 -103.8125 114 C-105 112 -105 112 -104.84765625 110.015625 C-103.89926685 107.76046863 -102.77079694 105.80122607 -101.4375 103.75 C-100.98246094 103.04359375 -100.52742187 102.3371875 -100.05859375 101.609375 C-99.53458984 100.81273437 -99.53458984 100.81273437 -99 100 C-95.25718967 101.24760344 -94.73533369 102.55150925 -92.625 105.8125 C-89.05328233 111.15695909 -89.05328233 111.15695909 -84 115 C-80.29059225 115.33465889 -80.29059225 115.33465889 -77 115 C-76.51891725 113.58398286 -76.04021859 112.16715563 -75.5625 110.75 C-75.29566406 109.96109375 -75.02882813 109.1721875 -74.75390625 108.359375 C-73.16934235 103.4004289 -72.87777187 98.95094145 -72.9375 93.75 C-72.94201172 93.00492188 -72.94652344 92.25984375 -72.95117188 91.4921875 C-72.96290754 89.6614236 -72.9808415 87.83070127 -73 86 C-73.72316406 86.48726562 -74.44632812 86.97453125 -75.19140625 87.4765625 C-79.45665092 89.79011664 -83.26004805 89.56391711 -88 89 C-91.3125 87.75 -91.3125 87.75 -94 86 C-94.845625 85.46375 -95.69125 84.9275 -96.5625 84.375 C-101.95991377 79.11598146 -104.23316833 74.22168707 -104.54492188 66.69897461 C-104.6006231 59.5328569 -104.26579211 53.99516729 -100 48 C-99.071875 47.175 -98.14375 46.35 -97.1875 45.5 C-96.465625 44.675 -95.74375 43.85 -95 43 C-95.33 40.36 -95.66 37.72 -96 35 C-101.61 35 -107.22 35 -113 35 C-113 33.02 -113 31.04 -113 29 C-75.71 29 -38.42 29 0 29 C0 19.43 0 9.86 0 0 Z " fill="#093D54" transform="translate(338,659)"/>
<path d="M0 0 C0.66 0 1.32 0 2 0 C2 178.86 2 357.72 2 542 C-44.86 542 -91.72 542 -140 542 C-140 541.67 -140 541.34 -140 541 C-138.28006836 540.7666394 -138.28006836 540.7666394 -136.52539062 540.52856445 C-105.07894874 536.30087053 -105.07894874 536.30087053 -74 530 C-73.10571289 529.7947168 -72.21142578 529.58943359 -71.29003906 529.37792969 C-59.01781908 526.54185755 -47.11631106 522.82068009 -35.25 518.625 C-33.40523071 517.974104 -33.40523071 517.974104 -31.52319336 517.31005859 C-21.15426054 513.56806249 -11.19896745 509.29430209 -1 505 C-0.67 338.35 -0.34 171.7 0 0 Z " fill="#043A51" transform="translate(769,105)"/>
<path d="M0 0 C1.670625 0.4021875 1.670625 0.4021875 3.375 0.8125 C3.705 1.4725 4.035 2.1325 4.375 2.8125 C3.199375 3.245625 3.199375 3.245625 2 3.6875 C-0.72171632 4.66162254 -0.72171632 4.66162254 -2.625 6.8125 C-0.83341511 6.83946365 0.95828473 6.85887917 2.75 6.875 C4.24660156 6.89240234 4.24660156 6.89240234 5.7734375 6.91015625 C8.35932453 6.99256602 8.35932453 6.99256602 10.375 5.8125 C13.9375 5.6875 13.9375 5.6875 17.375 5.8125 C17.87 6.3075 17.87 6.3075 18.375 6.8125 C20.33787766 6.93613297 22.30515158 6.9904544 24.27172852 7.01782227 C25.53296036 7.03776749 26.7941922 7.05771271 28.09364319 7.07826233 C29.48039627 7.09524795 30.86715066 7.11212671 32.25390625 7.12890625 C33.6649589 7.14946926 35.07600529 7.17046555 36.48704529 7.19187927 C40.2073359 7.24716755 43.92768273 7.29654686 47.64807129 7.34472656 C51.44186425 7.39489242 55.23557523 7.45060408 59.02929688 7.50585938 C66.47779523 7.61352351 73.92636159 7.71494997 81.375 7.8125 C82.365 9.7925 82.365 9.7925 83.375 11.8125 C82.055 11.8125 80.735 11.8125 79.375 11.8125 C79.38660156 12.79992187 79.39820313 13.78734375 79.41015625 14.8046875 C79.41917969 16.08601562 79.42820312 17.36734375 79.4375 18.6875 C79.44910156 19.96367188 79.46070313 21.23984375 79.47265625 22.5546875 C79.375 25.8125 79.375 25.8125 78.375 27.8125 C77.859375 27.503125 77.34375 27.19375 76.8125 26.875 C74.26648593 25.62748205 74.26648593 25.62748205 70.8125 25.375 C67.08873953 24.76565738 66.80255494 24.34560081 64.375 21.8125 C61.37097652 20.78840108 59.40016745 20.3719662 56.4296875 21.6484375 C54.70338769 22.6338961 53.03401366 23.71755098 51.375 24.8125 C52.695 26.4625 54.015 28.1125 55.375 29.8125 C53.91133658 29.41496179 52.4541065 28.99368616 51 28.5625 C50.18789063 28.33046875 49.37578125 28.0984375 48.5390625 27.859375 C45.91714546 26.5910108 45.38117682 25.48826692 44.375 22.8125 C45.15746094 22.31878906 45.93992187 21.82507813 46.74609375 21.31640625 C47.75800781 20.67574219 48.76992188 20.03507813 49.8125 19.375 C50.82183594 18.73691406 51.83117187 18.09882812 52.87109375 17.44140625 C55.22053835 16.03600458 55.22053835 16.03600458 56.375 14.8125 C53.00037285 15.35973683 51.29265 15.8674 48.375 17.8125 C47.055 17.8125 45.735 17.8125 44.375 17.8125 C43.88 16.3275 43.88 16.3275 43.375 14.8125 C44.035 14.1525 44.695 13.4925 45.375 12.8125 C44.055 12.4825 42.735 12.1525 41.375 11.8125 C41.375 16.7625 41.375 21.7125 41.375 26.8125 C40.055 26.8125 38.735 26.8125 37.375 26.8125 C37.045 26.4825 36.715 26.1525 36.375 25.8125 C32.88692071 25.31028963 29.3914865 24.91063129 25.890625 24.5078125 C22.33290913 23.80417536 20.15768939 23.13228454 17.375 20.8125 C16.88671875 18.55078125 16.88671875 18.55078125 17.0625 16.125 C17.10761719 15.31675781 17.15273438 14.50851562 17.19921875 13.67578125 C17.25722656 13.06089844 17.31523438 12.44601562 17.375 11.8125 C16.055 11.8125 14.735 11.8125 13.375 11.8125 C13.38660156 12.79992187 13.39820313 13.78734375 13.41015625 14.8046875 C13.41917969 16.08601562 13.42820312 17.36734375 13.4375 18.6875 C13.44910156 19.96367188 13.46070313 21.23984375 13.47265625 22.5546875 C13.375 25.8125 13.375 25.8125 12.375 27.8125 C9.87109375 28.2265625 9.87109375 28.2265625 6.8125 28.4375 C5.29462891 28.54964844 5.29462891 28.54964844 3.74609375 28.6640625 C2.96363281 28.71304688 2.18117188 28.76203125 1.375 28.8125 C-1.5831732 24.74501185 -2.27392341 21.81848059 -1.625 16.8125 C0 14.875 0 14.875 2.375 13.8125 C5.625 13.625 5.625 13.625 8.375 13.8125 C8.705 13.1525 9.035 12.4925 9.375 11.8125 C4.755 11.8125 0.135 11.8125 -4.625 11.8125 C-4.61339844 12.87210938 -4.60179687 13.93171875 -4.58984375 15.0234375 C-4.58046524 16.41145658 -4.57136511 17.79947755 -4.5625 19.1875 C-4.55412109 19.88617187 -4.54574219 20.58484375 -4.53710938 21.3046875 C-4.51171875 26.5859375 -4.51171875 26.5859375 -5.625 28.8125 C-6.945 28.1525 -8.265 27.4925 -9.625 26.8125 C-9.295 21.8625 -8.965 16.9125 -8.625 11.8125 C-9.615 11.8125 -10.605 11.8125 -11.625 11.8125 C-11.61339844 12.79992187 -11.60179687 13.78734375 -11.58984375 14.8046875 C-11.58082031 16.08601562 -11.57179688 17.36734375 -11.5625 18.6875 C-11.55089844 19.96367188 -11.53929687 21.23984375 -11.52734375 22.5546875 C-11.625 25.8125 -11.625 25.8125 -12.625 27.8125 C-13.945 27.1525 -15.265 26.4925 -16.625 25.8125 C-16.295 23.8325 -15.965 21.8525 -15.625 19.8125 C-16.285 19.8125 -16.945 19.8125 -17.625 19.8125 C-17.955 21.4625 -18.285 23.1125 -18.625 24.8125 C-21.3269433 24.44737253 -23.20890852 24.11380763 -25.4375 22.5 C-26.625 20.8125 -26.625 20.8125 -26.625 16.8125 C-24.975 16.8125 -23.325 16.8125 -21.625 16.8125 C-22.8375738 13.08816618 -24.13359979 9.43447194 -25.625 5.8125 C-23.75 5.1875 -23.75 5.1875 -21.625 4.8125 C-20.965 5.4725 -20.305 6.1325 -19.625 6.8125 C-16.96257179 7.27540221 -16.96257179 7.27540221 -14 7.4375 C-12.99710938 7.51226563 -11.99421875 7.58703125 -10.9609375 7.6640625 C-10.19007813 7.71304688 -9.41921875 7.76203125 -8.625 7.8125 C-8.31949219 7.02617188 -8.01398437 6.23984375 -7.69921875 5.4296875 C-5.84261848 0.90633411 -5.09779363 -0.26367898 0 0 Z " fill="#15475D" transform="translate(544.625,813.1875)"/>
<path d="M0 0 C0.495 0.99 0.495 0.99 1 2 C0.21625 2.28875 -0.5675 2.5775 -1.375 2.875 C-4.09671632 3.84912254 -4.09671632 3.84912254 -6 6 C-2.37 6 1.26 6 5 6 C4.505 5.01 4.505 5.01 4 4 C12.54545455 5.15034965 12.54545455 5.15034965 15 6 C15.495 6.99 15.495 6.99 16 8 C15.34 8 14.68 8 14 8 C14.495 9.485 14.495 9.485 15 11 C14.01 11 13.02 11 12 11 C12.01160156 11.98742187 12.02320313 12.97484375 12.03515625 13.9921875 C12.04417969 15.27351562 12.05320312 16.55484375 12.0625 17.875 C12.07410156 19.15117188 12.08570313 20.42734375 12.09765625 21.7421875 C12 25 12 25 11 27 C9.68 26.34 8.36 25.68 7 25 C7.33 20.38 7.66 15.76 8 11 C7.01 11 6.02 11 5 11 C5 16.28 5 21.56 5 27 C3.68 27.33 2.36 27.66 1 28 C-1.42243592 25.87949087 -3.39753178 23.80555205 -5 21 C-5.22630883 17.53496033 -4.7482182 14.38058588 -4 11 C-5.32 11 -6.64 11 -8 11 C-8 15.95 -8 20.9 -8 26 C-9.32 26.33 -10.64 26.66 -12 27 C-12 23.53306252 -11.79998832 20.19986566 -11.5 16.75 C-11.4071875 15.67234375 -11.314375 14.5946875 -11.21875 13.484375 C-11.1465625 12.66453125 -11.074375 11.8446875 -11 11 C-12.32 11 -13.64 11 -15 11 C-15 15.95 -15 20.9 -15 26 C-16.32 26 -17.64 26 -19 26 C-19 22.68757696 -18.8133998 19.54069789 -18.5 16.25 C-18.4071875 15.26515625 -18.314375 14.2803125 -18.21875 13.265625 C-18.1465625 12.51796875 -18.074375 11.7703125 -18 11 C-19.32 11 -20.64 11 -22 11 C-22 15.95 -22 20.9 -22 26 C-24.33333333 26 -26.66666667 26 -29 26 C-32.71465663 30.15167505 -34.14087618 32.54552773 -34.125 38.0625 C-34.12757813 38.96097656 -34.13015625 39.85945312 -34.1328125 40.78515625 C-34.24738223 42.97378893 -34.24738223 42.97378893 -33 44 C-28.76685233 44.23961213 -25.63263511 44.32488647 -22 42 C-21.01 43.98 -21.01 43.98 -20 46 C-22.30025374 48.12331115 -23.76057405 48.9583607 -26.875 49.5 C-31.12233658 48.82042615 -32.99280517 47.00719483 -36 44 C-38.89049715 39.32768954 -38.87984782 34.31574722 -38 29 C-36.64697169 26.55746923 -35.17479045 24.63211622 -33.3125 22.55859375 C-31.78528808 21.08463193 -31.78528808 21.08463193 -32 19 C-34.77100394 17.61449803 -36.9334706 17.8122533 -40 18 C-43.31460705 19.70892499 -43.31460705 19.70892499 -43.6875 23.125 C-43.790625 24.07375 -43.89375 25.0225 -44 26 C-46.89932357 23.60490662 -47.50168276 21.68754757 -48 18 C-50.31 18.66 -52.62 19.32 -55 20 C-54.67 22.31 -54.34 24.62 -54 27 C-55.32 27.33 -56.64 27.66 -58 28 C-60.29022537 25.495066 -61.84344229 23.73060264 -62.5625 20.375 C-62 18 -62 18 -60.0625 16.3125 C-56.13052591 14.62736825 -52.19456308 13.77677094 -48 13 C-48 12.34 -48 11.68 -48 11 C-53.61 11 -59.22 11 -65 11 C-64.979375 13.26875 -64.95875 15.5375 -64.9375 17.875 C-64.875 24.75 -64.875 24.75 -66 27 C-66.515625 26.690625 -67.03125 26.38125 -67.5625 26.0625 C-70.09715419 24.81278646 -70.09715419 24.81278646 -73.5 24.625 C-77 24 -77 24 -79.4375 22.25 C-81 20 -81 20 -81.5625 17.4375 C-81 15 -81 15 -78.5 13.1875 C-77.675 12.795625 -76.85 12.40375 -76 12 C-77.27875 11.9175 -78.5575 11.835 -79.875 11.75 C-82.0546875 11.609375 -82.0546875 11.609375 -84 11 C-85.12158203 8.96191406 -85.12158203 8.96191406 -86 7 C-85.08180481 7.00079559 -84.16360962 7.00159119 -83.21759033 7.00241089 C-74.56545765 7.00461844 -65.91398657 6.97823897 -57.262043 6.9197216 C-52.81387591 6.89064551 -48.36623673 6.87263675 -43.91796875 6.87988281 C-39.62521839 6.88646898 -35.33351183 6.86403312 -31.04097748 6.82144547 C-29.40316229 6.81030129 -27.7652414 6.80962601 -26.12741852 6.81957626 C-23.83281067 6.83173027 -21.54139819 6.80671144 -19.24707031 6.77294922 C-17.94135071 6.768508 -16.6356311 6.76406677 -15.29034424 6.75949097 C-11.73120895 6.3019272 -11.73120895 6.3019272 -9.67205811 3.01419067 C-9.12027893 2.01950775 -8.56849976 1.02482483 -8 0 C-5.09660535 -1.45169732 -3.09125158 -0.72348441 0 0 Z " fill="#114459" transform="translate(466,814)"/>
<path d="M0 0 C1.32 0.66 2.64 1.32 4 2 C3.43613403 5.34750813 2.5770877 6.6095267 -0.0625 8.6875 C-3.99523076 12.38438729 -3.99523076 12.38438729 -3 21 C12.51 21 28.02 21 44 21 C44.99 22.98 44.99 22.98 46 25 C44.68 25 43.36 25 42 25 C42.01160156 25.98742187 42.02320313 26.97484375 42.03515625 27.9921875 C42.04417969 29.27351562 42.05320312 30.55484375 42.0625 31.875 C42.07410156 33.15117188 42.08570313 34.42734375 42.09765625 35.7421875 C42 39 42 39 41 41 C39.68 40.34 38.36 39.68 37 39 C37.99 36.03 37.99 36.03 39 33 C37.35 33.33 35.7 33.66 34 34 C33.67 36.31 33.34 38.62 33 41 C31.0625 40.4375 31.0625 40.4375 29 39 C28.25 35.375 28.25 35.375 28 32 C28.99 31.67 29.98 31.34 31 31 C31 29.02 31 27.04 31 25 C28.69 25 26.38 25 24 25 C24.01160156 25.98742187 24.02320313 26.97484375 24.03515625 27.9921875 C24.04417969 29.27351562 24.05320312 30.55484375 24.0625 31.875 C24.07410156 33.15117188 24.08570313 34.42734375 24.09765625 35.7421875 C24 39 24 39 23 41 C21.68 40.34 20.36 39.68 19 39 C19.33 34.38 19.66 29.76 20 25 C19.01 25 18.02 25 17 25 C17 30.28 17 35.56 17 41 C15.68 41.33 14.36 41.66 13 42 C10.57756408 39.87949087 8.60246822 37.80555205 7 35 C6.77369117 31.53496033 7.2517818 28.38058588 8 25 C6.35 25 4.7 25 3 25 C3 29.95 3 34.9 3 40 C1.68 40 0.36 40 -1 40 C-1 36.68757696 -0.8133998 33.54069789 -0.5 30.25 C-0.36078125 28.77273438 -0.36078125 28.77273438 -0.21875 27.265625 C-0.11046875 26.14414062 -0.11046875 26.14414062 0 25 C-1.32 25 -2.64 25 -4 25 C-4 29.95 -4 34.9 -4 40 C-5.32 40 -6.64 40 -8 40 C-8 36 -8 36 -7 33 C-9.475 33.495 -9.475 33.495 -12 34 C-12 35.98 -12 37.96 -12 40 C-12.99 40.33 -13.98 40.66 -15 41 C-18.07692308 36.69230769 -18.07692308 36.69230769 -17.6875 33.1875 C-17.3471875 32.1046875 -17.3471875 32.1046875 -17 31 C-16.34 31 -15.68 31 -15 31 C-15 29.02 -15 27.04 -15 25 C-17.31 25 -19.62 25 -22 25 C-22 29.95 -22 34.9 -22 40 C-23.32 40 -24.64 40 -26 40 C-26 36 -26 36 -25 32 C-27.64 32.66 -30.28 33.32 -33 34 C-32.67 36.31 -32.34 38.62 -32 41 C-33.98 41.495 -33.98 41.495 -36 42 C-38.27183419 39.53884629 -38.9736202 38.26379801 -39.3125 34.875 C-39 32 -39 32 -37 30 C-35.14516546 29.39286197 -33.26578615 28.85868948 -31.375 28.375 C-30.37210938 28.11460937 -29.36921875 27.85421875 -28.3359375 27.5859375 C-27.56507813 27.39257812 -26.79421875 27.19921875 -26 27 C-26 26.34 -26 25.68 -26 25 C-31.28 25 -36.56 25 -42 25 C-41.88146316 29.84694276 -41.88146316 29.84694276 -41.72973633 34.69287109 C-41.7077676 36.46407019 -41.85125737 38.23492083 -42 40 C-42.99 40.66 -43.98 41.32 -45 42 C-47.37706418 38.33460332 -47.05094317 35.50943165 -46.625 31.25 C-46.45871094 29.49429688 -46.45871094 29.49429688 -46.2890625 27.703125 C-46.14597656 26.36507812 -46.14597656 26.36507812 -46 25 C-47.65 24.67 -49.3 24.34 -51 24 C-51.33 23.01 -51.66 22.02 -52 21 C-51.113125 20.79375 -50.22625 20.5875 -49.3125 20.375 C-45.98902982 18.99544634 -45.44832338 18.54776832 -43.5 15.8125 C-42.675 14.884375 -41.85 13.95625 -41 13 C-37.50839909 12.93016798 -35.81084593 13.32429506 -33.125 15.5625 C-32.75375 16.036875 -32.3825 16.51125 -32 17 C-33.134375 17.12375 -34.26875 17.2475 -35.4375 17.375 C-37.2009375 17.684375 -37.2009375 17.684375 -39 18 C-39.33 18.66 -39.66 19.32 -40 20 C-31.63455617 20.15512956 -31.63455617 20.15512956 -23.3125 19.4375 C-22.219375 19.293125 -21.12625 19.14875 -20 19 C-19.67 19.33 -19.34 19.66 -19 20 C-16.81360547 20.07258946 -14.62499611 20.08373783 -12.4375 20.0625 C-11.23996094 20.05347656 -10.04242187 20.04445313 -8.80859375 20.03515625 C-7.41833984 20.01775391 -7.41833984 20.01775391 -6 20 C-6.495 19.40058594 -6.99 18.80117188 -7.5 18.18359375 C-9 16 -9 16 -9 13.0625 C-7.76266287 9.27315505 -5.89710257 7.69016667 -3 5 C-1.94712186 3.36622358 -0.9272999 1.70818403 0 0 Z " fill="#16485D" transform="translate(695,800)"/>
<path d="M0 0 C0.66 0.33 1.32 0.66 2 1 C4.40560273 1.15608023 6.78702772 1.25804458 9.1953125 1.31640625 C9.90275604 1.33718735 10.61019958 1.35796844 11.33908081 1.37937927 C13.60095425 1.44481078 15.86294462 1.50372974 18.125 1.5625 C19.65756422 1.60569133 21.19011657 1.64930582 22.72265625 1.69335938 C26.48165073 1.80048555 30.24076292 1.9017709 34 2 C34.99 3.98 34.99 3.98 36 6 C34.68 6 33.36 6 32 6 C32 10.95 32 15.9 32 21 C30.68 21 29.36 21 28 21 C28 17 28 17 29 13 C26.36 13.66 23.72 14.32 21 15 C21.495 18.465 21.495 18.465 22 22 C20.68 22.33 19.36 22.66 18 23 C15.72816581 20.53884629 15.0263798 19.26379801 14.6875 15.875 C15 13 15 13 17 11 C18.85483454 10.39286197 20.73421385 9.85868948 22.625 9.375 C23.62789063 9.11460937 24.63078125 8.85421875 25.6640625 8.5859375 C26.43492187 8.39257812 27.20578125 8.19921875 28 8 C28 7.34 28 6.68 28 6 C22.39 6 16.78 6 11 6 C11.020625 8.26875 11.04125 10.5375 11.0625 12.875 C11.125 19.75 11.125 19.75 10 22 C8.68 21.34 7.36 20.68 6 20 C6.33 17.69 6.66 15.38 7 13 C4.69 13.66 2.38 14.32 0 15 C0.495 18.465 0.495 18.465 1 22 C-0.32 22.33 -1.64 22.66 -3 23 C-5.29022537 20.495066 -6.84344229 18.73060264 -7.5625 15.375 C-7 13 -7 13 -5.0625 11.3125 C-1.13052591 9.62736825 2.80543692 8.77677094 7 8 C7 7.34 7 6.68 7 6 C1.06 6 -4.88 6 -11 6 C-11 10.95 -11 15.9 -11 21 C-12.32 21 -13.64 21 -15 21 C-14.67 16.05 -14.34 11.1 -14 6 C-15.32 6 -16.64 6 -18 6 C-18 10.95 -18 15.9 -18 21 C-19.32 21 -20.64 21 -22 21 C-24.593341 22.06784629 -25.997499 22.997499 -28 25 C-31.125 25.125 -31.125 25.125 -34 25 C-34.66 23.68 -35.32 22.36 -36 21 C-33.69 20.34 -31.38 19.68 -29 19 C-31.31 18.01 -33.62 17.02 -36 16 C-36 14.68 -36 13.36 -36 12 C-32.7 10.35 -29.4 8.7 -26 7 C-30.95 6.67 -35.9 6.34 -41 6 C-41 10.95 -41 15.9 -41 21 C-44.76687864 22.88343932 -46.02958963 23.22057835 -50 23 C-50.33 22.01 -50.66 21.02 -51 20 C-52.2375 19.1028125 -52.2375 19.1028125 -53.5 18.1875 C-56.54393391 15.52405783 -56.73087196 13.94721131 -57 10 C-55.35 9.01 -53.7 8.02 -52 7 C-54.64 6.67 -57.28 6.34 -60 6 C-60.33 4.68 -60.66 3.36 -61 2 C-40.87 2 -20.74 2 0 2 C0 1.34 0 0.68 0 0 Z " fill="#104359" transform="translate(327,819)"/>
<path d="M0 0 C3.63 0 7.26 0 11 0 C11 1.32 11 2.64 11 4 C11.66 4 12.32 4 13 4 C13 3.34 13 2.68 13 2 C17.80834716 -0.83308718 22.57413035 -0.47525866 28 0 C34.17794501 1.81704265 38.26807878 6.94005277 42 12 C45.36152398 18.60338206 45.21926743 26.92307454 43.125 33.92578125 C40.57881507 39.44530713 37.22327027 43.79940842 32 47 C29.0625 47.875 29.0625 47.875 27 48 C26.32645501 46.56570999 25.66140299 45.12742943 25 43.6875 C24.443125 42.48673828 24.443125 42.48673828 23.875 41.26171875 C23 39 23 39 23 36 C23.90492188 35.65388672 23.90492188 35.65388672 24.828125 35.30078125 C30.61515809 32.93929839 34.11912519 30.76174962 37 25 C37.3753005 19.37049257 37.11070641 15.90534472 34 11 C30.75792989 9.37896494 27.50449255 9.44321146 24 10 C18.48870583 13.35000234 15.37107092 18.03518152 13 24 C12.30294133 28.19437617 12.21053427 32.31651691 12.1875 36.5625 C12.16236328 37.66658203 12.13722656 38.77066406 12.11132812 39.90820312 C12.0529539 42.60509233 12.02349296 45.30258141 12 48 C8.04 47.34 4.08 46.68 0 46 C0 30.82 0 15.64 0 0 Z " fill="#093E54" transform="translate(586,700)"/>
<path d="M0 0 C3.63 0 7.26 0 11 0 C11.33 0.99 11.66 1.98 12 3 C12.53882813 2.51273438 13.07765625 2.02546875 13.6328125 1.5234375 C17.97887384 -1.27353267 23.01175217 -0.4820857 28 0 C33.30492646 1.73615775 35.75709228 4.6452382 39 9 C41.24531531 13.49063062 40.69193481 19.69104364 39.28125 24.3984375 C37.3454376 28.59790149 35.43684502 31.22526199 31 33 C29.68 33 28.36 33 27 33 C25.68 29.37 24.36 25.74 23 22 C25.05078125 20.47005208 27.1015625 18.94010417 29.15234375 17.41015625 C30.9134453 16.13092062 30.9134453 16.13092062 32 15 C32.04092937 12.66702567 32.04241723 10.33294775 32 8 C26.01417973 7.49991376 26.01417973 7.49991376 20.5625 9.5 C20.046875 9.995 19.53125 10.49 19 11 C18.34 11 17.68 11 17 11 C16.30580437 12.65538958 15.64896236 14.32636023 15 16 C14.75314453 16.6084375 14.50628906 17.216875 14.25195312 17.84375 C11.85599011 24.24891796 11.46255497 30.26715345 11.3125 37.0625 C11.27833984 38.11888672 11.24417969 39.17527344 11.20898438 40.26367188 C11.12731485 42.84209556 11.06196371 45.42102751 11 48 C7.37 47.34 3.74 46.68 0 46 C0 30.82 0 15.64 0 0 Z " fill="#073C53" transform="translate(676,700)"/>
<path d="M0 0 C3.63 0 7.26 0 11 0 C11 15.18 11 30.36 11 46 C7.37 46.66 3.74 47.32 0 48 C0 32.16 0 16.32 0 0 Z " fill="#033950" transform="translate(425,700)"/>
<path d="M0 0 C3.43742918 -0.05802698 6.87473253 -0.09360486 10.3125 -0.125 C11.28896484 -0.14175781 12.26542969 -0.15851562 13.27148438 -0.17578125 C14.20927734 -0.18222656 15.14707031 -0.18867187 16.11328125 -0.1953125 C16.97735596 -0.20578613 17.84143066 -0.21625977 18.73168945 -0.22705078 C21 0 21 0 24 2 C24 2.66 24 3.32 24 4 C22.68 4 21.36 4 20 4 C20 8.95 20 13.9 20 19 C16.23312136 20.88343932 14.97041037 21.22057835 11 21 C10.67 20.01 10.34 19.02 10 18 C8.7625 17.1028125 8.7625 17.1028125 7.5 16.1875 C4.45606609 13.52405783 4.26912804 11.94721131 4 8 C5.65 7.01 7.3 6.02 9 5 C6.36 4.67 3.72 4.34 1 4 C0.67 2.68 0.34 1.36 0 0 Z " fill="#0D4157" transform="translate(266,821)"/>
<path d="M0 0 C7.95862101 0.02102674 15.83901615 0.47584675 23.76953125 1.1328125 C23.76953125 4.1028125 23.76953125 7.0728125 23.76953125 10.1328125 C17.36187713 12.98065878 10.00755538 13.23009937 3.25 11.48046875 C1.06703704 10.56401764 -0.50974474 9.75950787 -2.23046875 8.1328125 C-3.29296875 4.4453125 -3.29296875 4.4453125 -3.23046875 1.1328125 C-2.23046875 0.1328125 -2.23046875 0.1328125 0 0 Z " fill="#F1F4F5" transform="translate(729.23046875,725.8671875)"/>
<path d="M0 0 C3.8125 0.25 3.8125 0.25 7.125 1.25 C11.76830885 2.5092024 16.03508051 2.42302525 20.8125 2.25 C20.8125 5.22 20.8125 8.19 20.8125 11.25 C14.06813452 14.40239429 6.14898883 14.45803906 -0.8125 11.9375 C-1.59625 11.380625 -2.38 10.82375 -3.1875 10.25 C-3.826875 9.79625 -4.46625 9.3425 -5.125 8.875 C-6.1875 7.25 -6.1875 7.25 -6 4.6875 C-4.76054579 0.96913736 -3.93756245 0.30882843 0 0 Z " fill="#F1F4F5" transform="translate(543.1875,724.75)"/>
<path d="M0 0 C2 2 2 2 2 5.3125 C1.01220403 8.95499763 0.18728362 10.56817381 -2.84375 12.796875 C-7.61328582 15.45813774 -12.75933186 17.4799167 -18 19 C-18.66 18.67 -19.32 18.34 -20 18 C-19.3488857 11.32607847 -16.73086105 6.89187138 -12.3125 2.0625 C-8.17160671 -0.51579205 -4.78426292 -0.90900995 0 0 Z " fill="#F6F8F9" transform="translate(370,707)"/>
<path d="M0 0 C0.99 0.33 1.98 0.66 3 1 C3 1.66 3 2.32 3 3 C3.66 2.67 4.32 2.34 5 2 C7.8125 1.625 7.8125 1.625 11 2 C13.875 4.5 13.875 4.5 16 7 C14.01432292 6.93489583 12.02864583 6.86979167 10.04296875 6.8046875 C7.68640281 6.86745538 7.68640281 6.86745538 5 9 C4.26656572 12.06556598 4.26656572 12.06556598 4 15 C1.10067643 12.60490662 0.49831724 10.68754757 0 7 C-2.31 7.66 -4.62 8.32 -7 9 C-6.67 11.31 -6.34 13.62 -6 16 C-7.32 16.33 -8.64 16.66 -10 17 C-12.29022537 14.495066 -13.84344229 12.73060264 -14.5625 9.375 C-14 7 -14 7 -12.0625 5.3125 C-8.13052591 3.62736825 -4.19456308 2.77677094 0 2 C0 1.34 0 0.68 0 0 Z " fill="#1B4C61" transform="translate(418,825)"/>
<path d="M0 0 C4.07761451 1.35920484 5.11631425 4.00499246 7.125 7.5625 C7.48464844 8.15869141 7.84429687 8.75488281 8.21484375 9.36914062 C10.82834789 13.93543157 11.61767514 17.75751523 12 23 C8.32150418 22.44942253 7.05184337 21.21535252 4.8125 18.3125 C1.12012996 13.85757528 -3.06448355 10.95459488 -8 8 C-5.33333333 5.33333333 -2.66666667 2.66666667 0 0 Z " fill="#0E4258" transform="translate(429,659)"/>
<path d="M0 0 C1.32 0.33 2.64 0.66 4 1 C4 12.88 4 24.76 4 37 C2.68 36.67 1.36 36.34 0 36 C0 24.12 0 12.24 0 0 Z " fill="#255468" transform="translate(777,817)"/>
<path d="M0 0 C1.32 0.33 2.64 0.66 4 1 C4 12.88 4 24.76 4 37 C2.68 36.67 1.36 36.34 0 36 C0 24.12 0 12.24 0 0 Z " fill="#255468" transform="translate(230,817)"/>
<path d="M0 0 C1.32 0.33 2.64 0.66 4 1 C4 12.55 4 24.1 4 36 C2.68 35.67 1.36 35.34 0 35 C0 23.45 0 11.9 0 0 Z " fill="#235266" transform="translate(219,817)"/>
<path d="M0 0 C0.125 6.625 0.125 6.625 -1 10 C-5.89795918 14.89795918 -5.89795918 14.89795918 -10.375 15.3125 C-11.24125 15.209375 -12.1075 15.10625 -13 15 C-13.66 13.68 -14.32 12.36 -15 11 C-12.69 10.34 -10.38 9.68 -8 9 C-8.99 8.67 -9.98 8.34 -11 8 C-11 6.68 -11 5.36 -11 4 C-9.73308493 3.32591692 -8.46129251 2.66099503 -7.1875 2 C-6.47980469 1.62875 -5.77210938 1.2575 -5.04296875 0.875 C-3 0 -3 0 0 0 Z " fill="#13465B" transform="translate(306,829)"/>
<path d="M0 0 C2.6790573 4.01858595 2.69610694 7.27641721 2 12 C0.20606332 14.87029869 -0.98263276 16.49131638 -4 18 C-8.49355173 18.73500474 -12.40128405 18.94623188 -16.40234375 16.578125 C-19.8477517 13.66230055 -22.25930313 11.58623267 -23 7 C-22.443125 7.433125 -21.88625 7.86625 -21.3125 8.3125 C-16.02830929 12.22148638 -16.02830929 12.22148638 -9.75 13.625 C-5.44077199 12.90679533 -3.74508077 12.41055489 -1 9 C-0.30804567 5.99980996 -0.07223982 3.07347615 0 0 Z " fill="#184A5F" transform="translate(283,842)"/>
<path d="M0 0 C0.99 0.33 1.98 0.66 3 1 C3 12.55 3 24.1 3 36 C2.01 36 1.02 36 0 36 C0 24.12 0 12.24 0 0 Z " fill="#043950" transform="translate(767,817)"/>
<path d="M0 0 C3.74985325 -0.0871747 7.49944555 -0.14045003 11.25 -0.1875 C12.31347656 -0.21263672 13.37695312 -0.23777344 14.47265625 -0.26367188 C15.49746094 -0.27333984 16.52226562 -0.28300781 17.578125 -0.29296875 C18.52075195 -0.3086792 19.46337891 -0.32438965 20.43457031 -0.34057617 C23.45361509 0.06022012 24.82604954 0.89730042 27 3 C27 3.66 27 4.32 27 5 C23.06263877 5.08696177 19.12552372 5.14037835 15.1875 5.1875 C13.50817383 5.22520508 13.50817383 5.22520508 11.79492188 5.26367188 C10.72177734 5.27333984 9.64863281 5.28300781 8.54296875 5.29296875 C7.0583313 5.31653442 7.0583313 5.31653442 5.54370117 5.34057617 C3 5 3 5 1.15356445 3.60668945 C0 2 0 2 0 0 Z " fill="#1A4B60" transform="translate(300,814)"/>
<path d="M0 0 C6.93 0 13.86 0 21 0 C21 2.31 21 4.62 21 7 C18.9375 7.8125 18.9375 7.8125 16 8 C14.390625 6.953125 14.390625 6.953125 12.6875 5.5625 C8.72244941 2.40093983 5.95950328 2.56495585 1 3 C0.67 2.01 0.34 1.02 0 0 Z " fill="#F5F7F8" transform="translate(420,825)"/>
<path d="M0 0 C1.98 0 3.96 0 6 0 C5.505 0.61875 5.01 1.2375 4.5 1.875 C2.80777227 3.83880904 2.80777227 3.83880904 3 6 C4.03125 5.525625 5.0625 5.05125 6.125 4.5625 C9.38534162 3.15477612 12.46051083 2.43164502 16 2 C12.61127367 5.58806317 9.23858668 8.45684799 5 11 C4.34 11 3.68 11 3 11 C2.67 11.66 2.34 12.32 2 13 C1.34 13 0.68 13 0 13 C0 8.71 0 4.42 0 0 Z " fill="#ECF0F2" transform="translate(586,825)"/>
<path d="M0 0 C3.68923331 2.27336539 6.93957692 4.93957692 10 8 C7.28076177 8.86784199 5.78682652 9.3045712 3 9 C-0.30947203 7.00884658 -3.0992847 4.53531512 -6 2 C-6.99 1.34 -7.98 0.68 -9 0 C-5.72346418 -1.63826791 -3.51628558 -0.85071425 0 0 Z " fill="#16485D" transform="translate(736,846)"/>
<path d="M0 0 C6.75 0.75 6.75 0.75 9 3 C9 3.99 9 4.98 9 6 C6.25 8.25 6.25 8.25 3 10 C0.625 9.75 0.625 9.75 -1 9 C-0.67 8.01 -0.34 7.02 0 6 C0.66 6 1.32 6 2 6 C2 5.34 2 4.68 2 4 C1.01 4 0.02 4 -1 4 C-0.67 2.68 -0.34 1.36 0 0 Z " fill="#14465B" transform="translate(485,839)"/>
<path d="M0 0 C1.32 0 2.64 0 4 0 C4 3.96 4 7.92 4 12 C2.68 12.33 1.36 12.66 0 13 C0 8.71 0 4.42 0 0 Z " fill="#E7ECEF" transform="translate(451,825)"/>
<path d="M0 0 C0 0.66 0 1.32 0 2 C-6.93 2 -13.86 2 -21 2 C-21 1.34 -21 0.68 -21 0 C-3.97969543 -1.98984772 -3.97969543 -1.98984772 0 0 Z " fill="#DFE6E9" transform="translate(327,819)"/>
<path d="M0 0 C1.32 0 2.64 0 4 0 C4.05410687 1.77049689 4.09284119 3.54146849 4.125 5.3125 C4.14820313 6.29863281 4.17140625 7.28476562 4.1953125 8.30078125 C4 11 4 11 2 14 C1.34 13.67 0.68 13.34 0 13 C0 8.71 0 4.42 0 0 Z " fill="#E0E6E9" transform="translate(309,825)"/>
<path d="M0 0 C1.9375 1.5625 1.9375 1.5625 3 3 C2 4 2 4 -0.94140625 4.09765625 C-2.73384766 4.08025391 -2.73384766 4.08025391 -4.5625 4.0625 C-6.35880859 4.04896484 -6.35880859 4.04896484 -8.19140625 4.03515625 C-9.11824219 4.02355469 -10.04507813 4.01195312 -11 4 C-8.40658844 -1.74255417 -5.99557401 -1.26222611 0 0 Z " fill="#E3E9EC" transform="translate(665,817)"/>
<path d="M0 0 C1.32 0 2.64 0 4 0 C4 3.63 4 7.26 4 11 C2.02 11.99 2.02 11.99 0 13 C0 8.71 0 4.42 0 0 Z " fill="#E4EAEC" transform="translate(691,825)"/>
<path d="M0 0 C1.32 0 2.64 0 4 0 C4 3.63 4 7.26 4 11 C2.02 11.99 2.02 11.99 0 13 C0 8.71 0 4.42 0 0 Z " fill="#E9EDEF" transform="translate(444,825)"/>
<path d="M0 0 C1.4540625 0.309375 1.4540625 0.309375 2.9375 0.625 C3.9275 2.275 4.9175 3.925 5.9375 5.625 C1.6475 5.625 -2.6425 5.625 -7.0625 5.625 C-3.0625 0.625 -3.0625 0.625 0 0 Z " fill="#E7ECEE" transform="translate(548.0625,815.375)"/>
<path d="M0 0 C1.32 0 2.64 0 4 0 C4.25 2.8125 4.25 2.8125 4 6 C1.16746984 9.15936057 -1.89696842 9.53374641 -6 10 C-5.67 9.01 -5.34 8.02 -5 7 C-4.34 6.71125 -3.68 6.4225 -3 6.125 C-0.70849401 5.1446618 -0.70849401 5.1446618 -0.25 2.375 C-0.1675 1.59125 -0.085 0.8075 0 0 Z " fill="#E6EBED" transform="translate(279,825)"/>
<path d="M0 0 C1.4540625 0.309375 1.4540625 0.309375 2.9375 0.625 C3.9275 2.275 4.9175 3.925 5.9375 5.625 C1.6475 5.625 -2.6425 5.625 -7.0625 5.625 C-3.0625 0.625 -3.0625 0.625 0 0 Z " fill="#E8EDEF" transform="translate(466.0625,815.375)"/>
<path d="M0 0 C1.32 0 2.64 0 4 0 C4.35915493 5.38732394 4.35915493 5.38732394 2.9375 7.8125 C0.09072753 9.55729603 -2.71846765 9.69042148 -6 10 C-5 7 -5 7 -2.4375 5.5625 C-1.633125 5.046875 -0.82875 4.53125 0 4 C0 2.68 0 1.36 0 0 Z " fill="#E4EAEC" transform="translate(579,825)"/>
<path d="M0 0 C0.125 3.375 0.125 3.375 0 7 C-0.66 7.66 -1.32 8.32 -2 9 C-2.391875 8.525625 -2.78375 8.05125 -3.1875 7.5625 C-5.40808374 5.64820367 -7.13375709 5.38733012 -10 5 C-6.99385784 1.69324363 -4.54252119 0 0 0 Z " fill="#EAEEF0" transform="translate(306,829)"/>
<path d="M0 0 C1.32 0 2.64 0 4 0 C4 2.31 4 4.62 4 7 C-1.625 10 -1.625 10 -5 10 C-4.1875 8.0625 -4.1875 8.0625 -3 6 C-2.01 5.67 -1.02 5.34 0 5 C0 3.35 0 1.7 0 0 Z " fill="#EFF2F4" transform="translate(393,825)"/>
<path d="M0 0 C0.99 0 1.98 0 3 0 C3 2.31 3 4.62 3 7 C-2.625 10 -2.625 10 -6 10 C-5.67 9.01 -5.34 8.02 -5 7 C-4.34 6.71125 -3.68 6.4225 -3 6.125 C-0.70849401 5.1446618 -0.70849401 5.1446618 -0.25 2.375 C-0.1675 1.59125 -0.085 0.8075 0 0 Z " fill="#EFF2F4" transform="translate(617,825)"/>
<path d="M0 0 C1.32 0 2.64 0 4 0 C4 2.97 4 5.94 4 9 C3.01 9.495 3.01 9.495 2 10 C1.34 10.99 0.68 11.98 0 13 C0 8.71 0 4.42 0 0 Z " fill="#EEF1F3" transform="translate(458,825)"/>
<path d="M0 0 C0.99 0 1.98 0 3 0 C3.02694851 1.95825873 3.04637218 3.91662226 3.0625 5.875 C3.07410156 6.96554687 3.08570313 8.05609375 3.09765625 9.1796875 C3 12 3 12 2 14 C1.34 14 0.68 14 0 14 C0 9.38 0 4.76 0 0 Z " fill="#D3DDE1" transform="translate(712,825)"/>
<path d="M0 0 C0.99 0 1.98 0 3 0 C3.02694851 1.95825873 3.04637218 3.91662226 3.0625 5.875 C3.07410156 6.96554687 3.08570313 8.05609375 3.09765625 9.1796875 C3 12 3 12 2 14 C1.34 14 0.68 14 0 14 C0 9.38 0 4.76 0 0 Z " fill="#D3DDE1" transform="translate(471,825)"/>
<path d="M0 0 C0.99 0 1.98 0 3 0 C3 3.96 3 7.92 3 12 C2.01 12.33 1.02 12.66 0 13 C0 8.71 0 4.42 0 0 Z " fill="#F6F8F8" transform="translate(706,825)"/>
<path d="M0 0 C0.99 0 1.98 0 3 0 C3 3.96 3 7.92 3 12 C2.01 12.33 1.02 12.66 0 13 C0 8.71 0 4.42 0 0 Z " fill="#F6F8F8" transform="translate(465,825)"/>
<path d="M0 0 C3.63 0 7.26 0 11 0 C8.16569547 3.2542015 6.31392226 4.5206753 2 5 C1.34 3.35 0.68 1.7 0 0 Z " fill="#EFF3F4" transform="translate(603,825)"/>
<path d="M0 0 C-1.36983503 3.16115776 -1.9890638 3.9927092 -5 6 C-6.32 6 -7.64 6 -9 6 C-6.97377245 1.32409027 -5.29661848 0 0 0 Z " fill="#EAEEF0" transform="translate(554,831)"/>
<path d="M0 0 C3.3 0 6.6 0 10 0 C10 0.66 10 1.32 10 2 C7.75 3.75 7.75 3.75 5 5 C2.75 4.375 2.75 4.375 1 3 C0.67 2.01 0.34 1.02 0 0 Z " fill="#E9EEF0" transform="translate(566,825)"/>
<path d="M0 0 C3.98245614 3.98245614 3.98245614 3.98245614 4.0625 8.625 C4.041875 9.73875 4.02125 10.8525 4 12 C2.68 11.34 1.36 10.68 0 10 C0 6.7 0 3.4 0 0 Z " fill="#29576A" transform="translate(605,849)"/>
<path d="M0 0 C0.66 0 1.32 0 2 0 C2.6875 2.3125 2.6875 2.3125 3 5 C1.6875 6.5625 1.6875 6.5625 0 8 C-0.69703313 9.31771281 -1.3677865 10.64998951 -2 12 C-2.05422947 10.5629191 -2.09289723 9.12524538 -2.125 7.6875 C-2.14820313 6.88699219 -2.17140625 6.08648438 -2.1953125 5.26171875 C-2 3 -2 3 0 0 Z " fill="#1B4B60" transform="translate(260,832)"/>
<path d="M0 0 C0.99 0 1.98 0 3 0 C3.33 1.98 3.66 3.96 4 6 C2.68 6.33 1.36 6.66 0 7 C-0.93423645 3.98968256 -1.04449911 3.13349732 0 0 Z " fill="#376174" transform="translate(659,835)"/>
<path d="M0 0 C0.99 0 1.98 0 3 0 C3.33 1.98 3.66 3.96 4 6 C2.68 6.33 1.36 6.66 0 7 C-0.93423645 3.98968256 -1.04449911 3.13349732 0 0 Z " fill="#376174" transform="translate(345,835)"/>
<path d="M0 0 C2.31 0.33 4.62 0.66 7 1 C6.01 1.495 6.01 1.495 5 2 C3.86649466 4.01669827 3.86649466 4.01669827 3 6 C2.67 5.34 2.34 4.68 2 4 C1.01 4 0.02 4 -1 4 C-0.67 2.68 -0.34 1.36 0 0 Z " fill="#2C596C" transform="translate(485,839)"/>
<path d="M0 0 C1.32 0.66 2.64 1.32 4 2 C3.67 3.65 3.34 5.3 3 7 C1.68 6.67 0.36 6.34 -1 6 C-1.042721 4.33388095 -1.04063832 2.66617115 -1 1 C-0.67 0.67 -0.34 0.34 0 0 Z " fill="#3A6476" transform="translate(408,835)"/>
<path d="M0 0 C1.32 0.66 2.64 1.32 4 2 C3.67 3.65 3.34 5.3 3 7 C1.68 6.67 0.36 6.34 -1 6 C-1.042721 4.33388095 -1.04063832 2.66617115 -1 1 C-0.67 0.67 -0.34 0.34 0 0 Z " fill="#3A6476" transform="translate(324,835)"/>
<path d="M0 0 C2.0625 0.4375 2.0625 0.4375 4 1 C4 2.98 4 4.96 4 7 C2.0625 6.25 2.0625 6.25 0 5 C-0.8125 2.9375 -0.8125 2.9375 -1 1 C-0.67 0.67 -0.34 0.34 0 0 Z " fill="#1F4F63" transform="translate(520,818)"/>
<path d="M0 0 C4.29378813 1.92287034 6.77153701 4.62478869 10 8 C9.67 8.99 9.34 9.98 9 11 C6.66034429 8.77276018 4.72900834 6.41043353 2.8125 3.8125 C2.28269531 3.09707031 1.75289063 2.38164063 1.20703125 1.64453125 C0.80871094 1.10183594 0.41039062 0.55914063 0 0 Z " fill="#476E7F" transform="translate(299,844)"/>
<path d="M0 0 C0.33 0 0.66 0 1 0 C1 3.63 1 7.26 1 11 C1.66 11.33 2.32 11.66 3 12 C1.125 11.75 1.125 11.75 -1 11 C-2.25 8.9375 -2.25 8.9375 -3 7 C-2.34 6.67 -1.68 6.34 -1 6 C-0.34227572 2.97065509 -0.34227572 2.97065509 0 0 Z " fill="#325D70" transform="translate(705,827)"/>
<path d="M0 0 C0.33 0 0.66 0 1 0 C1 3.63 1 7.26 1 11 C1.66 11.33 2.32 11.66 3 12 C1.125 11.75 1.125 11.75 -1 11 C-2.25 8.9375 -2.25 8.9375 -3 7 C-2.34 6.67 -1.68 6.34 -1 6 C-0.34227572 2.97065509 -0.34227572 2.97065509 0 0 Z " fill="#325D70" transform="translate(464,827)"/>
<path d="M0 0 C2.31 1.65 4.62 3.3 7 5 C6.67 5.66 6.34 6.32 6 7 C3.00675737 5.9024777 2.15389099 5.32317108 0.75 2.375 C0.5025 1.59125 0.255 0.8075 0 0 Z " fill="#325E70" transform="translate(260,849)"/>
</svg>
